<?xml version="1.0" encoding="UTF-8" standalone="no"?>
<svg viewBox="0 0 160 154"
     preserveAspectRatio="xMidYMid meet"
     version="1.1"
     baseProfile="full"
     xmlns="http://www.w3.org/2000/svg"
     xmlns:xlink="http://www.w3.org/1999/xlink"
     xmlns:ev="http://www.w3.org/2001/xml-events"
     xml:space="preserve">
<title>image_bd_imp</title>
<desc>Nlview schematic (SVG)</desc>
<clipPath id="clippingbbox">
<rect x="0" y="0" width="160" height="154" />
</clipPath>
<g stroke="#102235"
   stroke-width="1"
   stroke-linecap="butt"
   stroke-linejoin="miter"
   stroke-miterlimit="4"
   stroke-dasharray="none"
   stroke-dashoffset="0"
   fill="none"
   font-family="Helvetica"
   font-style="normal"
   font-size="12"
   writing-mode="lr-tb"
   cursor="crosshair"
   clip-path="url(#clippingbbox)">
<path d="M0 0h160v155h-160z" stroke="none" fill="white" />
<path d="M27 29h106l3 1l2 1l1 2l1 3v82l-1 3l-1 2l-2 1l-3 1h-106l-3 -1l-2 -1l-1 -2l-1 -3v-82l1 -3l1 -2l2 -1z" stroke="none" fill="#edf6fe" />
<text x="80" y="27" fill="black" stroke-width="0" text-anchor="middle" dy="-1.6">singleShot_0</text>
<text x="80" y="127" fill="#41619f" stroke-width="0" text-anchor="middle" dy="9.6">singleShot_v1_0</text>
<g stroke="black" stroke-width="3">
<path d="M10 57h10" />
<text x="22" y="57" fill="black" stroke-width="0" font-size="10" dy="3.66667">sw</text>
<path d="M150 77h-10" />
<text x="138" y="77" fill="black" stroke-width="0" font-size="10" text-anchor="end" dy="3.66667">aShot</text>
<path d="M10 77h10" />
<text x="22" y="77" fill="black" stroke-width="0" font-size="10" dy="3.66667">clk</text>
<circle cx="17" cy="97" r="3" />
<path d="M10 97h4" />
<text x="22" y="97" fill="black" stroke-width="0" font-size="10" dy="3.66667">rst</text>
</g>
<g stroke="#41619f">
<path d="M27 29h106" />
<path d="M133,29 A6.83537,6.83537 1.61957 0,1 140,36" />
<path d="M140 36v82" />
<path d="M140,118 A6.83537,6.83537 1.61957 0,1 133,125" />
<path d="M133 125h-106" />
<path d="M27,125 A6.83537,6.83537 1.61957 0,1 20,118" />
<path d="M20 118v-82" />
<path d="M20,36 A6.83537,6.83537 1.61957 0,1 27,29" />
</g>
</g>
</svg>
