<?xml version="1.0" encoding="UTF-8" standalone="no"?>
<svg viewBox="0 0 240 214"
     preserveAspectRatio="xMidYMid meet"
     version="1.1"
     baseProfile="full"
     xmlns="http://www.w3.org/2000/svg"
     xmlns:xlink="http://www.w3.org/1999/xlink"
     xmlns:ev="http://www.w3.org/2001/xml-events"
     xml:space="preserve">
<title>image_bd_imp</title>
<desc>Nlview schematic (SVG)</desc>
<clipPath id="clippingbbox">
<rect x="0" y="0" width="240" height="214" />
</clipPath>
<g stroke="#102235"
   stroke-width="1"
   stroke-linecap="butt"
   stroke-linejoin="miter"
   stroke-miterlimit="4"
   stroke-dasharray="none"
   stroke-dashoffset="0"
   fill="none"
   font-family="Helvetica"
   font-style="normal"
   font-size="12"
   writing-mode="lr-tb"
   cursor="crosshair"
   clip-path="url(#clippingbbox)">
<path d="M0 0h240v215h-240z" stroke="none" fill="white" />
<path d="M27 29h186l3 1l2 1l1 2l1 3v142l-1 3l-1 2l-2 1l-3 1h-186l-3 -1l-2 -1l-1 -2l-1 -3v-142l1 -3l1 -2l2 -1z" stroke="none" fill="#edf6fe" />
<text x="120" y="27" fill="black" stroke-width="0" text-anchor="middle" dy="-1.6">CB4CLED_0</text>
<text x="120" y="187" fill="#41619f" stroke-width="0" text-anchor="middle" dy="9.6">CB4CLED_v1_0</text>
<g stroke="black" stroke-width="5">
<path d="M230 57h-10" />
<text x="218" y="57" fill="black" stroke-width="0" font-size="10" text-anchor="end" dy="3.66667">int_NS[3:0]</text>
<path d="M230 77h-10" />
<text x="218" y="77" fill="black" stroke-width="0" font-size="10" text-anchor="end" dy="3.66667">int_CS[3:0]</text>
</g>
<g stroke="black" stroke-width="3">
<path d="M230 97h-10" />
<text x="218" y="97" fill="black" stroke-width="0" font-size="10" text-anchor="end" dy="3.66667">int_intTC</text>
<path d="M10 57h10" />
<text x="22" y="57" fill="black" stroke-width="0" font-size="10" dy="3.66667">clk</text>
<circle cx="17" cy="77" r="3" />
<path d="M10 77h4" />
<text x="22" y="77" fill="black" stroke-width="0" font-size="10" dy="3.66667">rst</text>
<path d="M10 97h10" />
<text x="22" y="97" fill="black" stroke-width="0" font-size="10" dy="3.66667">load</text>
</g>
<g stroke="black" stroke-width="5">
<path d="M10 117h10" />
<text x="22" y="117" fill="black" stroke-width="0" font-size="10" dy="3.66667">loadDat[3:0]</text>
</g>
<g stroke="black" stroke-width="3">
<path d="M10 137h10" />
<text x="22" y="137" fill="black" stroke-width="0" font-size="10" dy="3.66667">ce</text>
<path d="M10 157h10" />
<text x="22" y="157" fill="black" stroke-width="0" font-size="10" dy="3.66667">up</text>
</g>
<g stroke="black" stroke-width="5">
<path d="M230 117h-10" />
<text x="218" y="117" fill="black" stroke-width="0" font-size="10" text-anchor="end" dy="3.66667">count[3:0]</text>
</g>
<g stroke="black" stroke-width="3">
<path d="M230 137h-10" />
<text x="218" y="137" fill="black" stroke-width="0" font-size="10" text-anchor="end" dy="3.66667">TC</text>
<path d="M230 157h-10" />
<text x="218" y="157" fill="black" stroke-width="0" font-size="10" text-anchor="end" dy="3.66667">ceo</text>
</g>
<g stroke="#41619f">
<path d="M27 29h186" />
<path d="M213,29 A6.83537,6.83537 1.61957 0,1 220,36" />
<path d="M220 36v142" />
<path d="M220,178 A6.83537,6.83537 1.61957 0,1 213,185" />
<path d="M213 185h-186" />
<path d="M27,185 A6.83537,6.83537 1.61957 0,1 20,178" />
<path d="M20 178v-142" />
<path d="M20,36 A6.83537,6.83537 1.61957 0,1 27,29" />
</g>
</g>
</svg>
